<?xml version="1.0" encoding="UTF-8"?>
<svg xmlns="http://www.w3.org/2000/svg" xmlns:xlink="http://www.w3.org/1999/xlink" width="200px" height="200px" viewBox="0 0 200 200" version="1.1">
<defs>
<radialGradient id="radial0" gradientUnits="userSpaceOnUse" cx="100" cy="22.435897" fx="100" fy="22.435897" r="105.769231" gradientTransform="matrix(0.4,0,0,0.4,76.996,58.544)">
<stop offset="0" style="stop-color:rgb(72.54902%,60.392157%,24.705882%);stop-opacity:1;"/>
<stop offset="0.713455" style="stop-color:rgb(49.411765%,49.411765%,49.411765%);stop-opacity:1;"/>
<stop offset="1" style="stop-color:rgb(0%,0%,0%);stop-opacity:1;"/>
</radialGradient>
</defs>
<g id="surface1">
<path style=" stroke:none;fill-rule:nonzero;fill:rgb(0%,0%,0%);fill-opacity:1;" d="M 12.789062 76.515625 L 15.578125 81.296875 L 21.703125 77.78125 L 18.921875 72.976562 Z M 12.789062 76.515625 "/>
<path style=" stroke:none;fill-rule:nonzero;fill:rgb(0%,0%,0%);fill-opacity:1;" d="M 30.6875 73.976562 L 32.15625 73.117188 L 28.195312 66.257812 L 19.898438 71.046875 C 21.070312 73.046875 23.703125 77.5625 23.703125 77.5625 L 24.65625 77.046875 C 24.679688 77.046875 24.703125 77.046875 24.734375 77.046875 L 19.117188 89.1875 L 21.3125 89.1875 L 27.492188 75.804688 L 28.953125 74.976562 L 35.0625 87.179688 L 37.304688 87.179688 Z M 30.6875 73.976562 "/>
<path style=" stroke:none;fill-rule:nonzero;fill:rgb(0%,0%,0%);fill-opacity:1;" d="M 29.078125 64.210938 C 30.640625 66.84375 32.835938 70.703125 34.46875 73.484375 L 44.601562 67.625 L 39.1875 58.296875 Z M 29.078125 64.210938 "/>
<path style=" stroke:none;fill-rule:nonzero;fill:rgb(0%,0%,0%);fill-opacity:1;" d="M 67.257812 49.289062 C 67.554688 49.585938 67.554688 50.046875 67.257812 50.34375 L 60.867188 56.734375 C 58.664062 58.914062 55.125 58.914062 52.953125 56.710938 C 50.757812 54.539062 50.757812 51 52.929688 48.804688 L 57.617188 44.117188 C 57.8125 43.921875 58.078125 43.84375 58.351562 43.921875 C 58.59375 43.992188 58.789062 44.1875 58.859375 44.4375 C 58.9375 44.703125 58.859375 44.96875 58.664062 45.164062 L 53.976562 49.851562 C 52.34375 51.460938 52.34375 54.078125 53.976562 55.710938 C 55.59375 57.320312 58.203125 57.320312 59.8125 55.710938 L 66.234375 49.289062 C 66.5 49.023438 66.96875 49.023438 67.257812 49.289062 Z M 58.882812 50.78125 C 59.695312 51.585938 59.9375 52.804688 59.5 53.859375 C 59.054688 54.90625 58.03125 55.59375 56.882812 55.59375 C 55.757812 55.59375 54.710938 54.90625 54.273438 53.859375 C 53.859375 52.804688 54.078125 51.585938 54.90625 50.78125 C 56.007812 49.679688 57.789062 49.679688 58.882812 50.78125 Z M 57.859375 51.828125 C 57.320312 51.296875 56.46875 51.296875 55.929688 51.828125 C 55.421875 52.34375 55.421875 53.195312 55.929688 53.734375 C 56.46875 54.25 57.320312 54.25 57.859375 53.734375 C 58.375 53.195312 58.375 52.34375 57.859375 51.828125 Z M 64.015625 42.40625 L 58.351562 48.070312 C 58.15625 48.265625 58.054688 48.53125 58.132812 48.804688 C 58.203125 49.070312 58.398438 49.265625 58.664062 49.34375 C 58.9375 49.390625 59.203125 49.3125 59.398438 49.125 L 65.0625 43.453125 C 65.328125 43.164062 65.328125 42.703125 65.039062 42.40625 C 64.773438 42.140625 64.304688 42.140625 64.015625 42.40625 Z M 62.546875 49.34375 C 62.820312 49.632812 63.304688 49.632812 63.570312 49.34375 L 66.53125 46.390625 C 66.726562 46.21875 66.796875 45.945312 66.726562 45.679688 C 66.648438 45.4375 66.453125 45.21875 66.210938 45.164062 C 65.945312 45.09375 65.671875 45.164062 65.476562 45.359375 L 62.546875 48.289062 C 62.257812 48.585938 62.257812 49.046875 62.546875 49.34375 Z M 53.492188 45.140625 C 53.492188 44.726562 53.171875 44.40625 52.757812 44.40625 C 52.34375 44.40625 52.023438 44.726562 52.023438 45.140625 C 52.023438 45.554688 52.34375 45.875 52.757812 45.875 C 53.171875 45.875 53.492188 45.554688 53.492188 45.140625 Z M 66.015625 55.8125 C 66.015625 55.203125 65.5 54.710938 64.890625 54.710938 C 64.28125 54.710938 63.796875 55.203125 63.796875 55.8125 C 63.796875 56.421875 64.28125 56.90625 64.890625 56.90625 C 65.5 56.90625 66.015625 56.421875 66.015625 55.8125 Z M 66.015625 55.8125 "/>
<path style=" stroke:none;fill-rule:nonzero;fill:url(#radial0);" d="M 75.828125 77.734375 C 75.320312 77.734375 74.804688 77.632812 74.265625 77.4375 L 74.265625 75.289062 C 74.734375 75.414062 75.195312 75.484375 75.632812 75.484375 C 76.21875 75.484375 76.6875 75.289062 77 74.898438 C 77.390625 74.5625 77.632812 74.046875 77.78125 73.335938 L 80.320312 61.523438 L 82.960938 61.523438 L 80.320312 73.726562 C 79.976562 75.09375 79.46875 76.101562 78.757812 76.757812 C 78.101562 77.390625 77.125 77.734375 75.828125 77.734375 Z M 91.429688 65.328125 C 91.164062 66.109375 90.84375 66.96875 90.453125 67.875 L 87.71875 74.023438 L 84.789062 74.023438 L 84.398438 61.523438 L 86.84375 61.523438 L 86.9375 68.359375 C 86.9375 68.625 86.890625 69.117188 86.84375 69.820312 C 86.84375 70.484375 86.84375 70.96875 86.84375 71.289062 C 86.960938 70.96875 87.15625 70.484375 87.429688 69.820312 C 87.671875 69.117188 87.84375 68.648438 87.914062 68.453125 L 91.140625 61.523438 L 93.484375 61.523438 L 93.578125 68.945312 C 93.578125 69.796875 93.578125 70.578125 93.578125 71.289062 C 93.820312 70.578125 94.210938 69.578125 94.75 68.257812 L 97.585938 61.523438 L 100.21875 61.523438 L 94.65625 74.023438 L 91.726562 74.023438 L 91.53125 67.875 L 91.429688 66.601562 C 91.429688 66.164062 91.453125 65.71875 91.53125 65.328125 Z M 106.664062 70.3125 C 106.664062 71.484375 106.226562 72.4375 105.398438 73.140625 C 104.539062 73.875 103.390625 74.21875 101.976562 74.21875 C 100.65625 74.21875 99.65625 73.976562 98.953125 73.4375 L 98.953125 71.09375 C 100.046875 71.679688 101.046875 71.96875 101.976562 71.96875 C 102.609375 71.96875 103.101562 71.875 103.445312 71.679688 C 103.835938 71.4375 104.03125 71.070312 104.03125 70.601562 C 104.03125 70.40625 103.976562 70.210938 103.929688 70.015625 C 103.859375 69.820312 103.734375 69.679688 103.539062 69.53125 C 103.390625 69.335938 103.078125 69.015625 102.5625 68.554688 C 101.710938 68.039062 101.125 67.53125 100.804688 66.992188 C 100.539062 66.40625 100.414062 65.796875 100.414062 65.132812 C 100.414062 64.351562 100.5625 63.71875 100.90625 63.179688 C 101.21875 62.59375 101.710938 62.15625 102.367188 61.8125 C 103.078125 61.5 103.859375 61.328125 104.710938 61.328125 C 105.929688 61.328125 107.078125 61.59375 108.132812 62.109375 L 107.15625 64.15625 C 106.226562 63.71875 105.421875 63.476562 104.710938 63.476562 C 104.171875 63.476562 103.757812 63.625 103.445312 63.867188 C 103.171875 64.132812 103.054688 64.5 103.054688 64.9375 C 103.054688 65.28125 103.148438 65.578125 103.34375 65.820312 C 103.539062 66.085938 103.953125 66.453125 104.617188 66.890625 C 105.320312 67.359375 105.835938 67.875 106.179688 68.453125 C 106.492188 68.992188 106.664062 69.601562 106.664062 70.3125 Z M 112.765625 74.023438 L 110.132812 74.023438 L 112.375 63.671875 L 109.351562 63.671875 L 109.835938 61.523438 L 118.429688 61.523438 L 118.039062 63.671875 L 115.015625 63.671875 Z M 122.289062 74.023438 L 124.929688 61.523438 L 127.5625 61.523438 L 124.828125 74.023438 Z M 135.867188 74.023438 L 133.226562 74.023438 L 134.398438 68.453125 C 134.523438 68.0625 134.59375 67.726562 134.59375 67.382812 C 134.59375 66.671875 134.25 66.304688 133.617188 66.304688 C 133.078125 66.304688 132.59375 66.648438 132.15625 67.28125 C 131.765625 67.945312 131.421875 68.84375 131.179688 70.015625 L 130.398438 74.023438 L 127.757812 74.023438 L 129.8125 64.453125 L 131.765625 64.453125 L 131.570312 66.210938 L 131.664062 66.210938 C 132.492188 64.914062 133.523438 64.257812 134.695312 64.257812 C 135.476562 64.257812 136.085938 64.523438 136.546875 65.039062 C 136.984375 65.5 137.234375 66.164062 137.234375 66.992188 C 137.234375 67.453125 137.15625 67.96875 137.039062 68.554688 Z M 145.242188 70.898438 C 145.242188 71.945312 144.875 72.75 144.164062 73.335938 C 143.429688 73.921875 142.429688 74.21875 141.140625 74.21875 C 140.554688 74.21875 140.015625 74.148438 139.578125 74.023438 C 139.109375 73.976562 138.695312 73.828125 138.304688 73.632812 L 138.304688 71.484375 C 139.210938 72.023438 140.109375 72.265625 141.039062 72.265625 C 141.476562 72.265625 141.84375 72.164062 142.117188 71.96875 C 142.429688 71.773438 142.601562 71.554688 142.601562 71.289062 C 142.601562 71.046875 142.507812 70.796875 142.3125 70.601562 C 142.117188 70.40625 141.726562 70.164062 141.140625 69.820312 C 140.476562 69.429688 139.992188 69.039062 139.671875 68.648438 C 139.40625 68.257812 139.28125 67.820312 139.28125 67.28125 C 139.28125 66.304688 139.601562 65.578125 140.257812 65.039062 C 140.890625 64.523438 141.820312 64.257812 142.992188 64.257812 C 144.09375 64.257812 145.140625 64.523438 146.117188 65.039062 L 145.242188 66.890625 C 144.460938 66.453125 143.703125 66.210938 142.992188 66.210938 C 142.648438 66.210938 142.40625 66.28125 142.210938 66.40625 C 142.015625 66.554688 141.921875 66.75 141.921875 66.992188 C 141.921875 67.1875 142.015625 67.382812 142.210938 67.578125 C 142.40625 67.773438 142.726562 68.015625 143.1875 68.257812 C 143.898438 68.601562 144.40625 68.992188 144.75 69.429688 C 145.070312 69.820312 145.242188 70.3125 145.242188 70.898438 Z M 149.171875 62.203125 C 149.171875 61.695312 149.289062 61.304688 149.5625 61.03125 C 149.875 60.789062 150.265625 60.640625 150.734375 60.640625 C 151.171875 60.640625 151.515625 60.742188 151.710938 60.9375 C 151.90625 61.132812 152 61.398438 152 61.71875 C 152 62.179688 151.859375 62.570312 151.609375 62.890625 C 151.414062 63.15625 151.046875 63.28125 150.539062 63.28125 C 149.609375 63.28125 149.171875 62.9375 149.171875 62.203125 Z M 149.367188 74.023438 L 146.726562 74.023438 L 148.78125 64.453125 L 151.414062 64.453125 Z M 161.8125 64.453125 L 161.523438 65.914062 L 160.0625 66.210938 C 160.109375 66.554688 160.15625 66.867188 160.15625 67.1875 C 160.15625 68.359375 159.789062 69.289062 159.078125 69.921875 C 158.421875 70.578125 157.515625 70.898438 156.34375 70.898438 C 156.007812 70.898438 155.710938 70.875 155.46875 70.796875 C 155.007812 70.945312 154.78125 71.164062 154.78125 71.484375 C 154.78125 71.679688 154.835938 71.828125 154.984375 71.875 C 155.171875 71.945312 155.421875 72.023438 155.765625 72.070312 L 156.9375 72.164062 C 157.835938 72.3125 158.523438 72.554688 158.984375 72.945312 C 159.421875 73.289062 159.671875 73.804688 159.671875 74.507812 C 159.671875 75.734375 159.203125 76.65625 158.296875 77.25 C 157.375 77.882812 156.101562 78.21875 154.492188 78.21875 C 153.25 78.21875 152.296875 77.976562 151.65625 77.539062 C 151.023438 77.148438 150.6875 76.5625 150.6875 75.78125 C 150.6875 75.195312 150.875 74.65625 151.265625 74.21875 C 151.65625 73.828125 152.273438 73.507812 153.125 73.242188 C 152.664062 73 152.4375 72.632812 152.4375 72.164062 C 152.4375 71.726562 152.5625 71.359375 152.828125 71.09375 C 153.078125 70.773438 153.515625 70.484375 154.101562 70.210938 C 153.710938 69.96875 153.421875 69.679688 153.21875 69.335938 C 153.078125 68.945312 153.03125 68.507812 153.03125 67.96875 C 153.03125 66.796875 153.367188 65.890625 154.101562 65.234375 C 154.8125 64.601562 155.789062 64.257812 157.03125 64.257812 C 157.46875 64.257812 157.960938 64.328125 158.5 64.453125 Z M 154.78125 74.125 C 154.203125 74.171875 153.734375 74.3125 153.421875 74.507812 C 153.078125 74.757812 152.929688 75.09375 152.929688 75.484375 C 152.929688 76.125 153.46875 76.460938 154.59375 76.460938 C 155.492188 76.460938 156.15625 76.320312 156.546875 76.070312 C 156.984375 75.804688 157.226562 75.4375 157.226562 75 C 157.226562 74.804688 157.125 74.632812 156.9375 74.507812 C 156.734375 74.367188 156.34375 74.265625 155.765625 74.21875 Z M 156.9375 65.914062 C 156.46875 65.914062 156.101562 66.164062 155.859375 66.601562 C 155.59375 66.992188 155.46875 67.53125 155.46875 68.164062 C 155.46875 68.898438 155.765625 69.234375 156.34375 69.234375 C 156.734375 69.234375 157.054688 69.015625 157.328125 68.554688 C 157.640625 68.117188 157.8125 67.554688 157.8125 66.890625 C 157.8125 66.257812 157.515625 65.914062 156.9375 65.914062 Z M 169.578125 74.023438 L 166.945312 74.023438 L 168.117188 68.453125 C 168.234375 68.0625 168.3125 67.726562 168.3125 67.382812 C 168.3125 66.671875 167.96875 66.304688 167.335938 66.304688 C 166.796875 66.304688 166.3125 66.648438 165.867188 67.28125 C 165.476562 67.945312 165.140625 68.84375 164.890625 70.015625 L 164.109375 74.023438 L 161.476562 74.023438 L 164.304688 60.640625 L 166.945312 60.640625 C 166.671875 61.695312 166.476562 62.5 166.359375 63.085938 C 166.28125 63.625 166.0625 64.5 165.671875 65.71875 L 165.773438 65.71875 C 166.085938 65.28125 166.453125 64.914062 166.84375 64.648438 C 167.28125 64.40625 167.820312 64.257812 168.40625 64.257812 C 169.1875 64.257812 169.796875 64.523438 170.265625 65.039062 C 170.703125 65.5 170.945312 66.164062 170.945312 66.992188 C 170.945312 67.453125 170.875 67.96875 170.75 68.554688 Z M 176.195312 72.070312 C 176.585938 72.070312 177.023438 71.96875 177.5625 71.773438 L 177.5625 73.726562 C 176.976562 74.046875 176.21875 74.21875 175.320312 74.21875 C 174.460938 74.21875 173.804688 74.046875 173.367188 73.726562 C 172.976562 73.335938 172.78125 72.75 172.78125 71.96875 C 172.78125 71.726562 172.828125 71.382812 172.976562 71 L 173.953125 66.40625 L 172.585938 66.40625 L 172.875 65.132812 L 174.539062 64.453125 L 175.710938 62.398438 L 177.367188 62.398438 L 176.882812 64.453125 L 179.320312 64.453125 L 178.929688 66.40625 L 176.492188 66.40625 L 175.515625 71 C 175.4375 71.1875 175.414062 71.359375 175.414062 71.484375 C 175.414062 71.875 175.65625 72.070312 176.195312 72.070312 Z M 186.15625 70.898438 C 186.15625 71.945312 185.789062 72.75 185.085938 73.335938 C 184.351562 73.921875 183.351562 74.21875 182.054688 74.21875 C 181.46875 74.21875 180.929688 74.148438 180.492188 74.023438 C 180.03125 73.976562 179.617188 73.828125 179.226562 73.632812 L 179.226562 71.484375 C 180.125 72.023438 181.03125 72.265625 181.960938 72.265625 C 182.398438 72.265625 182.765625 72.164062 183.03125 71.96875 C 183.351562 71.773438 183.523438 71.554688 183.523438 71.289062 C 183.523438 71.046875 183.421875 70.796875 183.226562 70.601562 C 183.03125 70.40625 182.640625 70.164062 182.054688 69.820312 C 181.398438 69.429688 180.90625 69.039062 180.59375 68.648438 C 180.320312 68.257812 180.203125 67.820312 180.203125 67.28125 C 180.203125 66.304688 180.515625 65.578125 181.179688 65.039062 C 181.8125 64.523438 182.742188 64.257812 183.914062 64.257812 C 185.007812 64.257812 186.0625 64.523438 187.039062 65.039062 L 186.15625 66.890625 C 185.375 66.453125 184.617188 66.210938 183.914062 66.210938 C 183.570312 66.210938 183.328125 66.28125 183.132812 66.40625 C 182.9375 66.554688 182.835938 66.75 182.835938 66.992188 C 182.835938 67.1875 182.9375 67.382812 183.132812 67.578125 C 183.328125 67.773438 183.640625 68.015625 184.109375 68.257812 C 184.8125 68.601562 185.328125 68.992188 185.671875 69.429688 C 185.984375 69.820312 186.15625 70.3125 186.15625 70.898438 Z M 186.15625 70.898438 "/>
</g>
</svg>
