<?xml version="1.0" encoding="UTF-8"?>
<svg xmlns="http://www.w3.org/2000/svg" xmlns:xlink="http://www.w3.org/1999/xlink" width="250px" height="250px" viewBox="0 0 250 250" version="1.1">
<g id="surface1">
<path style=" stroke:none;fill-rule:nonzero;fill:rgb(0%,0%,0%);fill-opacity:1;" d="M 18.335938 161.824219 L 28.476562 179.238281 L 50.675781 166.484375 L 40.558594 148.980469 Z M 18.335938 161.824219 "/>
<path style=" stroke:none;fill-rule:nonzero;fill:rgb(0%,0%,0%);fill-opacity:1;" d="M 83.195312 152.65625 L 88.550781 149.53125 L 74.207031 124.648438 L 44.140625 142.066406 C 48.335938 149.300781 57.890625 165.699219 57.890625 165.699219 L 61.40625 163.816406 C 61.460938 163.789062 61.53125 163.816406 61.59375 163.816406 L 41.300781 207.773438 L 49.253906 207.773438 L 71.660156 159.308594 L 76.914062 156.277344 L 99.0625 200.535156 L 107.203125 200.535156 Z M 83.195312 152.65625 "/>
<path style=" stroke:none;fill-rule:nonzero;fill:rgb(0%,0%,0%);fill-opacity:1;" d="M 77.414062 117.222656 C 83.027344 126.777344 91.042969 140.804688 96.957031 150.875 L 133.671875 129.664062 L 114.054688 95.828125 Z M 77.414062 117.222656 "/>
<path style=" stroke:none;fill-rule:nonzero;fill:rgb(0%,0%,0%);fill-opacity:1;" d="M 209.015625 67.472656 C 210.007812 68.464844 210.007812 70.066406 209.015625 71.058594 L 186.960938 93.113281 C 179.402344 100.589844 167.222656 100.554688 159.707031 93.035156 C 152.191406 85.511719 152.164062 73.332031 159.648438 65.777344 L 175.820312 49.609375 C 176.453125 48.949219 177.398438 48.6875 178.285156 48.917969 C 179.171875 49.148438 179.863281 49.84375 180.09375 50.726562 C 180.328125 51.613281 180.0625 52.558594 179.402344 53.195312 L 163.230469 69.355469 C 157.664062 74.921875 157.664062 83.949219 163.230469 89.519531 C 168.800781 95.085938 177.828125 95.085938 183.394531 89.519531 L 205.449219 67.464844 C 206.441406 66.488281 208.03125 66.492188 209.015625 67.472656 Z M 180.1875 72.558594 C 182.972656 75.339844 183.804688 79.527344 182.300781 83.160156 C 180.792969 86.796875 177.246094 89.167969 173.308594 89.167969 C 169.375 89.167969 165.828125 86.796875 164.320312 83.160156 C 162.816406 79.527344 163.648438 75.339844 166.429688 72.558594 C 170.234375 68.765625 176.386719 68.765625 180.1875 72.558594 Z M 176.605469 76.144531 C 174.785156 74.324219 171.832031 74.324219 170.011719 76.144531 C 168.191406 77.964844 168.191406 80.914062 170.011719 82.734375 C 171.855469 84.5 174.761719 84.5 176.605469 82.734375 C 178.421875 80.914062 178.421875 77.964844 176.605469 76.144531 Z M 197.828125 43.734375 L 178.308594 63.253906 C 177.617188 63.882812 177.332031 64.84375 177.5625 65.75 C 177.792969 66.65625 178.503906 67.363281 179.410156 67.585938 C 180.320312 67.808594 181.277344 67.515625 181.902344 66.820312 L 201.421875 47.300781 C 202.382812 46.304688 202.367188 44.722656 201.390625 43.746094 C 200.414062 42.769531 198.832031 42.753906 197.835938 43.714844 Z M 192.757812 67.597656 C 193.746094 68.585938 195.351562 68.585938 196.34375 67.597656 L 206.480469 57.457031 C 207.140625 56.820312 207.40625 55.878906 207.171875 54.992188 C 206.941406 54.105469 206.25 53.414062 205.363281 53.183594 C 204.476562 52.949219 203.535156 53.214844 202.898438 53.875 L 192.757812 64.011719 C 191.769531 65.003906 191.769531 66.609375 192.757812 67.597656 Z M 161.59375 53.128906 C 161.59375 51.730469 160.460938 50.59375 159.058594 50.59375 C 157.660156 50.59375 156.523438 51.730469 156.523438 53.128906 C 156.523438 54.53125 157.660156 55.664062 159.058594 55.664062 C 160.460938 55.664062 161.59375 54.53125 161.59375 53.128906 Z M 204.691406 89.886719 C 204.691406 87.789062 202.988281 86.085938 200.886719 86.085938 C 198.785156 86.085938 197.085938 87.789062 197.085938 89.886719 C 197.085938 91.988281 198.785156 93.691406 200.886719 93.691406 C 202.988281 93.691406 204.691406 91.988281 204.691406 89.886719 Z M 204.691406 89.886719 "/>
</g>
</svg>
