<?xml version="1.0" encoding="UTF-8" standalone="no" ?>
<!DOCTYPE svg PUBLIC "-//W3C//DTD SVG 1.1//EN" "http://www.w3.org/Graphics/SVG/1.1/DTD/svg11.dtd">
<svg xmlns="http://www.w3.org/2000/svg" xmlns:xlink="http://www.w3.org/1999/xlink" version="1.1" width="500" height="500" viewBox="0 0 500 500" xml:space="preserve">
<desc>Created with Fabric.js 4.6.0</desc>
<defs>
</defs>
<g transform="matrix(0.29 0 0 0.29 152.03 303.62)" id="HwUx2E9OYX3VOG4e5rWUR"  >
<g style="" vector-effect="non-scaling-stroke"   >
		<g transform="matrix(1.56 0 0 1.56 -286.27 84.83)" id="CVlHCOTypb3tyWR9fBuOi"  >
<path style="stroke: none; stroke-width: 1; stroke-dasharray: none; stroke-linecap: butt; stroke-dashoffset: 0; stroke-linejoin: miter; stroke-miterlimit: 4; fill: rgb(0,0,0); fill-rule: nonzero; opacity: 1;" vector-effect="non-scaling-stroke"  transform=" translate(-72.89, -303)" d="M 1.41 292.9 L 46.23 369.87 L 144.37 313.49 L 99.64000000000001 236.12 z" stroke-linecap="round" />
</g>
		<g transform="matrix(1.56 0 0 1.56 -12.15 99.31)" id="wLsW8p3PuZVnVwKlE0Hog"  >
<path style="stroke: none; stroke-width: 1; stroke-dasharray: none; stroke-linecap: butt; stroke-dashoffset: 0; stroke-linejoin: miter; stroke-miterlimit: 4; fill: rgb(0,0,0); fill-rule: nonzero; opacity: 1;" vector-effect="non-scaling-stroke"  transform=" translate(-248.33, -312.26)" d="M 287.87 252.34 L 311.54 238.53 L 248.12 128.53 L 115.20000000000002 205.53 C 133.75 237.51 176 310 176 310 L 191.53 301.68 C 191.77 301.55 192.08 301.68 192.36 301.68 L 102.65 496 L 137.81 496 L 236.86 281.75 L 260.1 268.35 L 358 464 L 394 464 Z" stroke-linecap="round" />
</g>
		<g transform="matrix(1.56 0 0 1.56 203.65 -196.28)" id="jfnu5ZFvxgF584oDhZI6y"  >
<path style="stroke: none; stroke-width: 1; stroke-dasharray: none; stroke-linecap: butt; stroke-dashoffset: 0; stroke-linejoin: miter; stroke-miterlimit: 4; fill: rgb(0,0,0); fill-rule: nonzero; opacity: 1;" vector-effect="non-scaling-stroke"  transform=" translate(-386.44, -123.08)" d="M 262.08 96 C 286.89 138.23 322.33 200.25 348.48 244.76 L 510.79 151 L 424.07 1.41 Z" stroke-linecap="round" />
</g>
</g>
</g>
<g transform="matrix(5.07 0 0 5.07 363.8 141.7)" id="wFe6tgTWElpu7lefY4j6-"  >
<path style="stroke: none; stroke-width: 1; stroke-dasharray: none; stroke-linecap: butt; stroke-dashoffset: 0; stroke-linejoin: miter; stroke-miterlimit: 4; fill: rgb(0,0,0); fill-rule: nonzero; opacity: 1;" vector-effect="non-scaling-stroke"  transform=" translate(-12.01, -11.99)" d="M 22.707 10.658 C 23.097381938332862 11.048499851485813 23.097381938332862 11.681500148514186 22.707 12.072 L 14.007000000000001 20.772 C 11.025049566959364 23.722056724544153 6.219864878693503 23.708247580479977 3.2549193107891874 20.741100660877915 C 0.28997374288487165 17.773953741275857 0.2797309327299651 12.968760127523689 3.2319999999999975 9.989000000000003 L 9.611 3.611 C 9.862074470261529 3.35104341554689 10.23387789214219 3.246787402801648 10.583507323893294 3.3383028434170674 C 10.933136755644398 3.429818284032487 11.206181715967514 3.702863244355603 11.297697156582934 4.0524926761067075 C 11.389212597198354 4.402122107857812 11.28495658445311 4.773925529738472 11.025 5.025 L 4.646 11.4 C 2.4495635499229347 13.596436450077066 2.4495635499229347 17.157563549922934 4.646000000000001 19.354 C 6.8424364500770665 21.550436450077065 10.403563549922936 21.550436450077065 12.6 19.354 L 21.299999999999997 10.654 C 21.690780658682225 10.269365994567192 22.31841261409182 10.271150307162527 22.707 10.658 Z M 11.335 12.664 C 12.432880701920869 13.761576689013884 12.76143851834998 15.412452305007637 12.16745132807414 16.846745106950515 C 11.5734641377983 18.28103790889339 10.173922823819897 19.21625160034953 8.621500000000003 19.216251600349533 C 7.069077176180107 19.216251600349533 5.669535862201704 18.281037908893392 5.075548671925862 16.846745106950515 C 4.48156148165002 15.41245230500764 4.810119298079131 13.761576689013886 5.907999999999999 12.664000000000001 C 7.407658364733151 11.167872975716659 9.835341635266852 11.167872975716659 11.335 12.664000000000001 Z M 9.921 14.078 C 9.203029825219968 13.360029825219968 8.03897017478003 13.360029825219968 7.320999999999999 14.078 C 6.603029825219967 14.795970174780031 6.603029825219967 15.96002982521997 7.321 16.678 C 8.047977797593118 17.373884147054405 9.194022202406881 17.373884147054405 9.921 16.678 C 10.638130580196478 15.959682257098605 10.638130580196478 14.796317742901396 9.921 14.078 Z M 18.293 1.293 L 10.593 8.993 C 10.320572386689586 9.24185753431191 10.207319489077022 9.620511967371167 10.298368595854857 9.978082851298774 C 10.389417702632693 10.335653735226382 10.669972373659343 10.614032030102612 11.028241459212754 10.702293795406362 C 11.386510544766166 10.790555560710112 11.764271539798523 10.674357328687282 12.011 10.4 L 19.711 2.7 C 20.089972209508115 2.3076211130356925 20.08455237389712 1.683915222978874 19.69881857545912 1.2981814245408758 C 19.31308477702112 0.9124476261028776 18.689378886964302 0.9070277904918833 18.296999999999997 1.2860000000000005 Z M 16.293 10.706999999999999 C 16.683499851485813 11.097381938332862 17.316500148514187 11.097381938332862 17.707 10.706999999999999 L 21.707 6.706999999999999 C 21.9669565844531 6.455925529738467 22.071212597198333 6.084122107857813 21.979697156582912 5.734492676106716 C 21.88818171596749 5.3848632443556195 21.61513675564438 5.111818284032509 21.26550732389328 5.020302843417088 C 20.915877892142184 4.928787402801667 20.54407447026153 5.033043415546901 20.293 5.292999999999999 L 16.293 9.293 C 15.902618061667136 9.683499851485813 15.902618061667136 10.316500148514187 16.293 10.707 Z M 4 5 C 4 4.447715250169207 3.5522847498307932 4 3 4 C 2.4477152501692068 4 2 4.447715250169207 2 5 C 2 5.552284749830793 2.4477152501692068 6 3 6 C 3.5522847498307932 6 4 5.552284749830793 4 5 Z M 21 19.5 C 21 18.67157287525381 20.32842712474619 18 19.5 18 C 18.67157287525381 18 18 18.67157287525381 18 19.5 C 18 20.32842712474619 18.67157287525381 21 19.5 21 C 20.32842712474619 21 21 20.32842712474619 21 19.5 Z" stroke-linecap="round" />
</g>
</svg>